<svg width="12" height="12" viewBox="0 0 12 12" fill="none" xmlns="http://www.w3.org/2000/svg">
<path d="M3.71287 0.245409C3.10037 0.245409 2.53435 0.398535 2.01482 0.704784C1.49529 1.01103 1.0824 1.42393 0.776147 1.94346C0.469897 2.46299 0.316772 3.029 0.316772 3.6415V8.39932C0.316772 9.01182 0.469897 9.57783 0.776147 10.0974C1.0824 10.6169 1.49529 11.0298 2.01482 11.336C2.53435 11.6423 3.10037 11.7954 3.71287 11.7954H8.47068C9.08318 11.7954 9.64919 11.6423 10.1687 11.336C10.6883 11.0298 11.1011 10.6169 11.4074 10.0974C11.7136 9.57783 11.8668 9.01182 11.8668 8.39932V3.6415C11.8668 3.029 11.7136 2.46299 11.4074 1.94346C11.1011 1.42393 10.6883 1.01103 10.1687 0.704784C9.64919 0.398535 9.08318 0.245409 8.47068 0.245409H3.71287ZM3.71287 1.29541H8.47068C8.89724 1.29541 9.29099 1.39932 9.65193 1.60713C10.0129 1.81494 10.2972 2.09932 10.5051 2.46025C10.7129 2.82119 10.8168 3.21494 10.8168 3.6415V8.39932C10.8168 8.82588 10.7129 9.21963 10.5051 9.58057C10.2972 9.9415 10.0129 10.2259 9.65193 10.4337C9.29099 10.6415 8.89724 10.7454 8.47068 10.7454H3.71287C3.2863 10.7454 2.89255 10.6415 2.53162 10.4337C2.17068 10.2259 1.8863 9.9415 1.67849 9.58057C1.47068 9.21963 1.36677 8.82588 1.36677 8.39932V3.6415C1.36677 3.21494 1.47068 2.82119 1.67849 2.46025C1.8863 2.09932 2.17068 1.81494 2.53162 1.60713C2.89255 1.39932 3.2863 1.29541 3.71287 1.29541ZM9.19255 2.44385C9.0613 2.44385 8.94919 2.49033 8.85623 2.5833C8.76326 2.67627 8.71677 2.78838 8.71677 2.91963C8.71677 3.05088 8.76326 3.16299 8.85623 3.25596C8.94919 3.34893 9.0613 3.39541 9.19255 3.39541C9.3238 3.39541 9.43591 3.34893 9.52888 3.25596C9.62185 3.16299 9.66834 3.05088 9.66834 2.91963C9.66834 2.78838 9.62185 2.67627 9.52888 2.5833C9.43591 2.49033 9.3238 2.44385 9.19255 2.44385ZM6.09177 2.87041C5.52302 2.87041 4.99802 3.0126 4.51677 3.29697C4.03552 3.58135 3.65271 3.96416 3.36834 4.44541C3.08396 4.92666 2.94177 5.45166 2.94177 6.02041C2.94177 6.58916 3.08396 7.11416 3.36834 7.59541C3.65271 8.07666 4.03552 8.45947 4.51677 8.74385C4.99802 9.02822 5.52302 9.17041 6.09177 9.17041C6.66052 9.17041 7.18552 9.02822 7.66677 8.74385C8.14802 8.45947 8.53084 8.07666 8.81521 7.59541C9.09959 7.11416 9.24177 6.58916 9.24177 6.02041C9.24177 5.45166 9.09959 4.92666 8.81521 4.44541C8.53084 3.96416 8.14802 3.58135 7.66677 3.29697C7.18552 3.0126 6.66052 2.87041 6.09177 2.87041ZM6.09177 3.92041C6.47459 3.92041 6.82732 4.01338 7.14998 4.19932C7.47263 4.38525 7.72693 4.63955 7.91287 4.96221C8.0988 5.28486 8.19177 5.6376 8.19177 6.02041C8.19177 6.40322 8.0988 6.75596 7.91287 7.07861C7.72693 7.40127 7.47263 7.65557 7.14998 7.8415C6.82732 8.02744 6.47459 8.12041 6.09177 8.12041C5.70896 8.12041 5.35623 8.02744 5.03357 7.8415C4.71091 7.65557 4.45662 7.40127 4.27068 7.07861C4.08474 6.75596 3.99177 6.40322 3.99177 6.02041C3.99177 5.6376 4.08474 5.28486 4.27068 4.96221C4.45662 4.63955 4.71091 4.38525 5.03357 4.19932C5.35623 4.01338 5.70896 3.92041 6.09177 3.92041Z" fill="white"/>
</svg>
