<svg width="168" height="39" viewBox="0 0 168 39" fill="none" xmlns="http://www.w3.org/2000/svg">
<path d="M30.4502 0.620117C32.7697 0.620221 34.6504 2.50078 34.6504 4.82031V21.5098C34.3781 21.2221 34.0789 20.9704 33.751 20.7568C32.8283 20.1197 31.6853 19.8018 30.3232 19.8018H30.0928C28.7526 19.8018 27.6209 20.1197 26.6982 20.7568C25.7755 21.372 25.0732 22.2951 24.5898 23.5254C24.5672 23.5858 24.5479 23.648 24.5264 23.71C24.5037 23.6479 24.4818 23.586 24.458 23.5254C23.9967 22.2952 23.3045 21.372 22.3818 20.7568C21.4811 20.1197 20.3494 19.8018 18.9873 19.8018H18.7568C17.4168 19.8018 16.285 20.1198 15.3623 20.7568C14.4396 21.372 13.7475 22.2951 13.2861 23.5254C13.1257 23.9532 12.9953 24.4187 12.8906 24.9209V20.3613H8.70605V38.4199H0V0.620117H30.4502ZM17.0762 24.5137C17.9987 24.5137 18.7125 24.8215 19.2178 25.4365C19.745 26.0516 20.0087 26.8533 20.0088 27.8418V38.4199H13.9785V27.9414C13.9785 26.909 14.2527 26.0848 14.8018 25.4697C15.351 24.8326 16.1095 24.5137 17.0762 24.5137ZM28.3789 24.5137C29.3235 24.5137 30.0484 24.8215 30.5537 25.4365C31.0809 26.0516 31.3447 26.8533 31.3447 27.8418V38.4199H25.3145V27.9414C25.3145 26.9089 25.5894 26.0849 26.1387 25.4697C26.6879 24.8327 27.4343 24.5137 28.3789 24.5137Z" fill="#1DA7FB"/>
<path d="M44.89 27.52V13.7104H48.0904V19.6576H47.8636C47.8636 18.2464 48.04 17.0704 48.3928 16.1296C48.7456 15.1888 49.2748 14.4832 49.9804 14.0128C50.686 13.5256 51.5512 13.282 52.576 13.282H52.7524C53.794 13.282 54.6592 13.5256 55.348 14.0128C56.0536 14.4832 56.5828 15.1888 56.9356 16.1296C57.3052 17.0704 57.49 18.2464 57.49 19.6576H56.5072C56.5072 18.2464 56.6836 17.0704 57.0364 16.1296C57.406 15.1888 57.9436 14.4832 58.6492 14.0128C59.3548 13.5256 60.22 13.282 61.2448 13.282H61.4212C62.4628 13.282 63.3364 13.5256 64.042 14.0128C64.7644 14.4832 65.3104 15.1888 65.68 16.1296C66.0496 17.0704 66.2344 18.2464 66.2344 19.6576V27.52H62.2024V19.4308C62.2024 18.6748 62.0008 18.0616 61.5976 17.5912C61.2112 17.1208 60.6568 16.8856 59.9344 16.8856C59.212 16.8856 58.6408 17.1292 58.2208 17.6164C57.8008 18.0868 57.5908 18.7168 57.5908 19.5064V27.52H53.5336V19.4308C53.5336 18.6748 53.332 18.0616 52.9288 17.5912C52.5424 17.1208 51.9964 16.8856 51.2908 16.8856C50.5516 16.8856 49.972 17.1292 49.552 17.6164C49.132 18.0868 48.922 18.7168 48.922 19.5064V27.52H44.89ZM75.4718 27.9988C74.2958 27.9988 73.2542 27.7972 72.347 27.394C71.4566 26.9908 70.709 26.4532 70.1042 25.7812C69.5162 25.0924 69.0626 24.328 68.7434 23.488C68.441 22.6312 68.2898 21.7576 68.2898 20.8672V20.3632C68.2898 19.4392 68.441 18.5572 68.7434 17.7172C69.0626 16.8604 69.5162 16.096 70.1042 15.424C70.6922 14.752 71.423 14.2228 72.2966 13.8364C73.187 13.4332 74.195 13.2316 75.3206 13.2316C76.799 13.2316 78.0422 13.5676 79.0502 14.2396C80.075 14.8948 80.8562 15.76 81.3938 16.8352C81.9314 17.8936 82.2002 19.0528 82.2002 20.3128V21.6736H69.9782V19.3804H79.7558L78.4454 20.4388C78.4454 19.6156 78.3278 18.91 78.0926 18.322C77.8574 17.734 77.5046 17.2888 77.0342 16.9864C76.5806 16.6672 76.0094 16.5076 75.3206 16.5076C74.615 16.5076 74.0186 16.6672 73.5314 16.9864C73.0442 17.3056 72.6746 17.776 72.4226 18.3976C72.1706 19.0024 72.0446 19.75 72.0446 20.6404C72.0446 21.4636 72.1622 22.186 72.3974 22.8076C72.6326 23.4124 73.0022 23.8828 73.5062 24.2188C74.0102 24.5548 74.6654 24.7228 75.4718 24.7228C76.211 24.7228 76.8158 24.58 77.2862 24.2944C77.7566 24.0088 78.0758 23.656 78.2438 23.236H81.9482C81.7466 24.16 81.3518 24.9832 80.7638 25.7056C80.1758 26.428 79.4366 26.9908 78.5462 27.394C77.6558 27.7972 76.631 27.9988 75.4718 27.9988ZM90.0422 27.9736C89.0678 27.9736 88.1774 27.7972 87.371 27.4444C86.5814 27.0916 85.8926 26.6044 85.3046 25.9828C84.7166 25.3444 84.263 24.5968 83.9438 23.74C83.6414 22.8832 83.4902 21.9592 83.4902 20.968V20.3884C83.4902 19.3972 83.633 18.4732 83.9186 17.6164C84.221 16.7596 84.6494 16.012 85.2038 15.3736C85.775 14.7184 86.4554 14.2144 87.245 13.8616C88.0346 13.492 88.9166 13.3072 89.891 13.3072C90.9998 13.3072 91.9574 13.5508 92.7638 14.038C93.5702 14.5084 94.2002 15.214 94.6538 16.1548C95.1074 17.0788 95.3594 18.2212 95.4098 19.582L94.3514 18.5992V9.12402H98.4086V27.52H95.2082V21.7996H95.7626C95.7122 23.11 95.435 24.2272 94.931 25.1512C94.4438 26.0752 93.7802 26.7808 92.9402 27.268C92.1002 27.7384 91.1342 27.9736 90.0422 27.9736ZM91.0502 24.5968C91.6718 24.5968 92.2346 24.4624 92.7386 24.1936C93.2594 23.908 93.671 23.4964 93.9734 22.9588C94.2926 22.4212 94.4522 21.7744 94.4522 21.0184V20.086C94.4522 19.3468 94.2926 18.7252 93.9734 18.2212C93.6542 17.7172 93.2342 17.3308 92.7134 17.062C92.1926 16.7932 91.6298 16.6588 91.025 16.6588C90.353 16.6588 89.7482 16.8352 89.2106 17.188C88.6898 17.524 88.2782 17.9944 87.9758 18.5992C87.6734 19.1872 87.5222 19.876 87.5222 20.6656C87.5222 21.472 87.6734 22.1692 87.9758 22.7572C88.2782 23.3452 88.6982 23.7988 89.2358 24.118C89.7734 24.4372 90.3782 24.5968 91.0502 24.5968ZM101.541 27.52V13.7104H104.741V19.6576H104.514C104.514 18.2464 104.691 17.0704 105.044 16.1296C105.396 15.1888 105.926 14.4832 106.631 14.0128C107.337 13.5256 108.202 13.282 109.227 13.282H109.403C110.445 13.282 111.31 13.5256 111.999 14.0128C112.704 14.4832 113.234 15.1888 113.586 16.1296C113.956 17.0704 114.141 18.2464 114.141 19.6576H113.158C113.158 18.2464 113.334 17.0704 113.687 16.1296C114.057 15.1888 114.594 14.4832 115.3 14.0128C116.006 13.5256 116.871 13.282 117.896 13.282H118.072C119.114 13.282 119.987 13.5256 120.693 14.0128C121.415 14.4832 121.961 15.1888 122.331 16.1296C122.7 17.0704 122.885 18.2464 122.885 19.6576V27.52H118.853V19.4308C118.853 18.6748 118.652 18.0616 118.248 17.5912C117.862 17.1208 117.308 16.8856 116.585 16.8856C115.863 16.8856 115.292 17.1292 114.872 17.6164C114.452 18.0868 114.242 18.7168 114.242 19.5064V27.52H110.184V19.4308C110.184 18.6748 109.983 18.0616 109.58 17.5912C109.193 17.1208 108.647 16.8856 107.942 16.8856C107.202 16.8856 106.623 17.1292 106.203 17.6164C105.783 18.0868 105.573 18.7168 105.573 19.5064V27.52H101.541ZM134.139 27.52V23.4376H133.458V19.0024C133.458 18.2968 133.29 17.7676 132.954 17.4148C132.618 17.062 132.081 16.8856 131.341 16.8856C130.972 16.8856 130.485 16.894 129.88 16.9108C129.275 16.9276 128.653 16.9528 128.015 16.9864C127.377 17.02 126.797 17.0536 126.276 17.0872V13.6852C126.663 13.6516 127.116 13.618 127.637 13.5844C128.158 13.5508 128.695 13.5256 129.25 13.5088C129.804 13.492 130.325 13.4836 130.812 13.4836C132.223 13.4836 133.408 13.6852 134.365 14.0884C135.34 14.4916 136.079 15.1048 136.583 15.928C137.087 16.7344 137.339 17.776 137.339 19.0528V27.52H134.139ZM129.729 27.8728C128.737 27.8728 127.864 27.6964 127.108 27.3436C126.369 26.9908 125.789 26.4868 125.369 25.8316C124.949 25.1596 124.739 24.3616 124.739 23.4376C124.739 22.4296 124.999 21.6064 125.52 20.968C126.041 20.3128 126.772 19.834 127.713 19.5316C128.653 19.2124 129.737 19.0528 130.963 19.0528H133.912V21.2956H130.938C130.233 21.2956 129.687 21.472 129.3 21.8248C128.931 22.1608 128.746 22.6228 128.746 23.2108C128.746 23.7652 128.931 24.2188 129.3 24.5716C129.687 24.9076 130.233 25.0756 130.938 25.0756C131.392 25.0756 131.795 25 132.148 24.8488C132.517 24.6808 132.82 24.4036 133.055 24.0172C133.29 23.6308 133.425 23.0932 133.458 22.4044L134.416 23.4124C134.332 24.37 134.097 25.1764 133.71 25.8316C133.341 26.4868 132.82 26.9908 132.148 27.3436C131.493 27.6964 130.686 27.8728 129.729 27.8728ZM140.235 27.52V13.7104H143.435V19.6324H143.36C143.36 17.6836 143.771 16.18 144.595 15.1216C145.435 14.0632 146.644 13.534 148.223 13.534H148.753V17.0116H147.745C146.636 17.0116 145.779 17.314 145.174 17.9188C144.569 18.5068 144.267 19.3636 144.267 20.4892V27.52H140.235ZM156.911 27.6964C155.517 27.6964 154.391 27.5284 153.534 27.1924C152.678 26.8396 152.048 26.26 151.644 25.4536C151.258 24.6304 151.065 23.5216 151.065 22.1272V9.98082H154.82V22.2784C154.82 22.9336 154.988 23.4376 155.324 23.7904C155.676 24.1264 156.172 24.2944 156.81 24.2944H158.852V27.6964H156.911ZM148.973 16.6588V13.7104H158.852V16.6588H148.973Z" fill="white"/>
<path d="M160.408 27.52V23.0092H164.843V27.52H160.408Z" fill="#1DA7FB"/>
</svg>
