<svg width="168" height="39" viewBox="0 0 168 39" fill="none" xmlns="http://www.w3.org/2000/svg">
<path d="M30.4502 0.975C32.7697 0.975104 34.6504 2.85566 34.6504 5.1752V21.8646C34.3781 21.5769 34.0789 21.3253 33.751 21.1117C32.8283 20.4746 31.6853 20.1557 30.3232 20.1557H30.0928C28.7526 20.1557 27.6209 20.4746 26.6982 21.1117C25.7756 21.7269 25.0731 22.65 24.5898 23.8803C24.5673 23.9404 24.5478 24.0022 24.5264 24.0639C24.5038 24.0021 24.4817 23.9406 24.458 23.8803C23.9967 22.6501 23.3044 21.7269 22.3818 21.1117C21.4811 20.4746 20.3494 20.1557 18.9873 20.1557H18.7568C17.4167 20.1557 16.285 20.4746 15.3623 21.1117C14.4396 21.7269 13.7475 22.65 13.2861 23.8803C13.1258 24.3078 12.9952 24.7729 12.8906 25.2748V20.7162H8.70605V38.7748H0V0.975H30.4502ZM17.0762 24.8686C17.9988 24.8686 18.7125 25.1763 19.2178 25.7914C19.745 26.4065 20.0088 27.2082 20.0088 28.1967V38.7748H13.9785V28.2953C13.9786 27.2632 14.2528 26.4396 14.8018 25.8246C15.351 25.1875 16.1095 24.8686 17.0762 24.8686ZM28.3789 24.8686C29.3236 24.8686 30.0484 25.1763 30.5537 25.7914C31.0809 26.4065 31.3447 27.2081 31.3447 28.1967V38.7748H25.3145V28.2953C25.3145 27.263 25.5895 26.4397 26.1387 25.8246C26.6879 25.1875 27.4343 24.8686 28.3789 24.8686Z" fill="#1DA7FB"/>
<path d="M44.89 27.8749V14.0653H48.0904V20.0125H47.8636C47.8636 18.6013 48.04 17.4253 48.3928 16.4845C48.7456 15.5437 49.2748 14.8381 49.9804 14.3677C50.686 13.8805 51.5512 13.6369 52.576 13.6369H52.7524C53.794 13.6369 54.6592 13.8805 55.348 14.3677C56.0536 14.8381 56.5828 15.5437 56.9356 16.4845C57.3052 17.4253 57.49 18.6013 57.49 20.0125H56.5072C56.5072 18.6013 56.6836 17.4253 57.0364 16.4845C57.406 15.5437 57.9436 14.8381 58.6492 14.3677C59.3548 13.8805 60.22 13.6369 61.2448 13.6369H61.4212C62.4628 13.6369 63.3364 13.8805 64.042 14.3677C64.7644 14.8381 65.3104 15.5437 65.68 16.4845C66.0496 17.4253 66.2344 18.6013 66.2344 20.0125V27.8749H62.2024V19.7857C62.2024 19.0297 62.0008 18.4165 61.5976 17.9461C61.2112 17.4757 60.6568 17.2405 59.9344 17.2405C59.212 17.2405 58.6408 17.4841 58.2208 17.9713C57.8008 18.4417 57.5908 19.0717 57.5908 19.8613V27.8749H53.5336V19.7857C53.5336 19.0297 53.332 18.4165 52.9288 17.9461C52.5424 17.4757 51.9964 17.2405 51.2908 17.2405C50.5516 17.2405 49.972 17.4841 49.552 17.9713C49.132 18.4417 48.922 19.0717 48.922 19.8613V27.8749H44.89ZM75.4718 28.3537C74.2958 28.3537 73.2542 28.1521 72.347 27.7489C71.4566 27.3457 70.709 26.8081 70.1042 26.1361C69.5162 25.4473 69.0626 24.6829 68.7434 23.8429C68.441 22.9861 68.2898 22.1125 68.2898 21.2221V20.7181C68.2898 19.7941 68.441 18.9121 68.7434 18.0721C69.0626 17.2153 69.5162 16.4509 70.1042 15.7789C70.6922 15.1069 71.423 14.5777 72.2966 14.1913C73.187 13.7881 74.195 13.5865 75.3206 13.5865C76.799 13.5865 78.0422 13.9225 79.0502 14.5945C80.075 15.2497 80.8562 16.1149 81.3938 17.1901C81.9314 18.2485 82.2002 19.4077 82.2002 20.6677V22.0285H69.9782V19.7353H79.7558L78.4454 20.7937C78.4454 19.9705 78.3278 19.2649 78.0926 18.6769C77.8574 18.0889 77.5046 17.6437 77.0342 17.3413C76.5806 17.0221 76.0094 16.8625 75.3206 16.8625C74.615 16.8625 74.0186 17.0221 73.5314 17.3413C73.0442 17.6605 72.6746 18.1309 72.4226 18.7525C72.1706 19.3573 72.0446 20.1049 72.0446 20.9953C72.0446 21.8185 72.1622 22.5409 72.3974 23.1625C72.6326 23.7673 73.0022 24.2377 73.5062 24.5737C74.0102 24.9097 74.6654 25.0777 75.4718 25.0777C76.211 25.0777 76.8158 24.9349 77.2862 24.6493C77.7566 24.3637 78.0758 24.0109 78.2438 23.5909H81.9482C81.7466 24.5149 81.3518 25.3381 80.7638 26.0605C80.1758 26.7829 79.4366 27.3457 78.5462 27.7489C77.6558 28.1521 76.631 28.3537 75.4718 28.3537ZM90.0422 28.3285C89.0678 28.3285 88.1774 28.1521 87.371 27.7993C86.5814 27.4465 85.8926 26.9593 85.3046 26.3377C84.7166 25.6993 84.263 24.9517 83.9438 24.0949C83.6414 23.2381 83.4902 22.3141 83.4902 21.3229V20.7433C83.4902 19.7521 83.633 18.8281 83.9186 17.9713C84.221 17.1145 84.6494 16.3669 85.2038 15.7285C85.775 15.0733 86.4554 14.5693 87.245 14.2165C88.0346 13.8469 88.9166 13.6621 89.891 13.6621C90.9998 13.6621 91.9574 13.9057 92.7638 14.3929C93.5702 14.8633 94.2002 15.5689 94.6538 16.5097C95.1074 17.4337 95.3594 18.5761 95.4098 19.9369L94.3514 18.9541V9.4789H98.4086V27.8749H95.2082V22.1545H95.7626C95.7122 23.4649 95.435 24.5821 94.931 25.5061C94.4438 26.4301 93.7802 27.1357 92.9402 27.6229C92.1002 28.0933 91.1342 28.3285 90.0422 28.3285ZM91.0502 24.9517C91.6718 24.9517 92.2346 24.8173 92.7386 24.5485C93.2594 24.2629 93.671 23.8513 93.9734 23.3137C94.2926 22.7761 94.4522 22.1293 94.4522 21.3733V20.4409C94.4522 19.7017 94.2926 19.0801 93.9734 18.5761C93.6542 18.0721 93.2342 17.6857 92.7134 17.4169C92.1926 17.1481 91.6298 17.0137 91.025 17.0137C90.353 17.0137 89.7482 17.1901 89.2106 17.5429C88.6898 17.8789 88.2782 18.3493 87.9758 18.9541C87.6734 19.5421 87.5222 20.2309 87.5222 21.0205C87.5222 21.8269 87.6734 22.5241 87.9758 23.1121C88.2782 23.7001 88.6982 24.1537 89.2358 24.4729C89.7734 24.7921 90.3782 24.9517 91.0502 24.9517ZM101.541 27.8749V14.0653H104.741V20.0125H104.514C104.514 18.6013 104.691 17.4253 105.044 16.4845C105.396 15.5437 105.926 14.8381 106.631 14.3677C107.337 13.8805 108.202 13.6369 109.227 13.6369H109.403C110.445 13.6369 111.31 13.8805 111.999 14.3677C112.704 14.8381 113.234 15.5437 113.586 16.4845C113.956 17.4253 114.141 18.6013 114.141 20.0125H113.158C113.158 18.6013 113.334 17.4253 113.687 16.4845C114.057 15.5437 114.594 14.8381 115.3 14.3677C116.006 13.8805 116.871 13.6369 117.896 13.6369H118.072C119.114 13.6369 119.987 13.8805 120.693 14.3677C121.415 14.8381 121.961 15.5437 122.331 16.4845C122.7 17.4253 122.885 18.6013 122.885 20.0125V27.8749H118.853V19.7857C118.853 19.0297 118.652 18.4165 118.248 17.9461C117.862 17.4757 117.308 17.2405 116.585 17.2405C115.863 17.2405 115.292 17.4841 114.872 17.9713C114.452 18.4417 114.242 19.0717 114.242 19.8613V27.8749H110.184V19.7857C110.184 19.0297 109.983 18.4165 109.58 17.9461C109.193 17.4757 108.647 17.2405 107.942 17.2405C107.202 17.2405 106.623 17.4841 106.203 17.9713C105.783 18.4417 105.573 19.0717 105.573 19.8613V27.8749H101.541ZM134.139 27.8749V23.7925H133.458V19.3573C133.458 18.6517 133.29 18.1225 132.954 17.7697C132.618 17.4169 132.081 17.2405 131.341 17.2405C130.972 17.2405 130.485 17.2489 129.88 17.2657C129.275 17.2825 128.653 17.3077 128.015 17.3413C127.377 17.3749 126.797 17.4085 126.276 17.4421V14.0401C126.663 14.0065 127.116 13.9729 127.637 13.9393C128.158 13.9057 128.695 13.8805 129.25 13.8637C129.804 13.8469 130.325 13.8385 130.812 13.8385C132.223 13.8385 133.408 14.0401 134.365 14.4433C135.34 14.8465 136.079 15.4597 136.583 16.2829C137.087 17.0893 137.339 18.1309 137.339 19.4077V27.8749H134.139ZM129.729 28.2277C128.737 28.2277 127.864 28.0513 127.108 27.6985C126.369 27.3457 125.789 26.8417 125.369 26.1865C124.949 25.5145 124.739 24.7165 124.739 23.7925C124.739 22.7845 124.999 21.9613 125.52 21.3229C126.041 20.6677 126.772 20.1889 127.713 19.8865C128.653 19.5673 129.737 19.4077 130.963 19.4077H133.912V21.6505H130.938C130.233 21.6505 129.687 21.8269 129.3 22.1797C128.931 22.5157 128.746 22.9777 128.746 23.5657C128.746 24.1201 128.931 24.5737 129.3 24.9265C129.687 25.2625 130.233 25.4305 130.938 25.4305C131.392 25.4305 131.795 25.3549 132.148 25.2037C132.517 25.0357 132.82 24.7585 133.055 24.3721C133.29 23.9857 133.425 23.4481 133.458 22.7593L134.416 23.7673C134.332 24.7249 134.097 25.5313 133.71 26.1865C133.341 26.8417 132.82 27.3457 132.148 27.6985C131.493 28.0513 130.686 28.2277 129.729 28.2277ZM140.235 27.8749V14.0653H143.435V19.9873H143.36C143.36 18.0385 143.771 16.5349 144.595 15.4765C145.435 14.4181 146.644 13.8889 148.223 13.8889H148.753V17.3665H147.745C146.636 17.3665 145.779 17.6689 145.174 18.2737C144.569 18.8617 144.267 19.7185 144.267 20.8441V27.8749H140.235ZM156.911 28.0513C155.517 28.0513 154.391 27.8833 153.534 27.5473C152.678 27.1945 152.048 26.6149 151.644 25.8085C151.258 24.9853 151.065 23.8765 151.065 22.4821V10.3357H154.82V22.6333C154.82 23.2885 154.988 23.7925 155.324 24.1453C155.676 24.4813 156.172 24.6493 156.81 24.6493H158.852V28.0513H156.911ZM148.973 17.0137V14.0653H158.852V17.0137H148.973Z" fill="#353639"/>
<path d="M160.408 27.8749V23.3641H164.843V27.8749H160.408Z" fill="#1DA7FB"/>
</svg>
