<svg width="11" height="14" viewBox="0 0 11 14" fill="none" xmlns="http://www.w3.org/2000/svg">
<path d="M5.64102 0.720216C4.7332 0.720216 3.87461 0.911622 3.06523 1.29443C2.25586 1.67725 1.61055 2.20772 1.1293 2.88584C0.604297 3.61865 0.341797 4.4499 0.341797 5.37959C0.341797 5.94834 0.440234 6.4624 0.637109 6.92178C0.801172 7.32647 1.01992 7.65459 1.29336 7.90615C1.53398 8.1249 1.76914 8.23428 1.99883 8.23428C2.1082 8.23428 2.20664 8.1085 2.29414 7.85693C2.35977 7.64912 2.39258 7.46865 2.39258 7.31553C2.39258 7.26084 2.34336 7.15146 2.24492 6.9874C2.10273 6.75772 2.0043 6.56631 1.94961 6.41318C1.84023 6.13975 1.78555 5.85537 1.78555 5.56006C1.78555 4.871 1.94414 4.25576 2.26133 3.71436C2.57852 3.17295 3.01602 2.74912 3.57383 2.44287C4.13164 2.13662 4.74961 1.9835 5.42773 1.9835C6.34648 1.9835 7.0793 2.22959 7.62617 2.72178C8.2168 3.23584 8.51211 3.94131 8.51211 4.83818C8.51211 5.38506 8.44102 5.93193 8.29883 6.47881C8.13477 7.15693 7.88867 7.69287 7.56055 8.08662C7.17773 8.56787 6.71289 8.8085 6.16602 8.8085C5.83789 8.8085 5.55625 8.70186 5.32109 8.48857C5.08594 8.27529 4.96836 8.00459 4.96836 7.67647C4.96836 7.45772 5.00117 7.21162 5.0668 6.93818C5.09961 6.78506 5.16797 6.54443 5.27188 6.21631C5.37578 5.88818 5.44961 5.64209 5.49336 5.47803C5.55898 5.20459 5.5918 4.95303 5.5918 4.72334C5.5918 4.31865 5.46602 4.0124 5.21445 3.80459C4.9957 3.62959 4.725 3.5749 4.40234 3.64053C4.07969 3.70615 3.80352 3.88115 3.57383 4.16553C3.3332 4.49365 3.21289 4.90381 3.21289 5.396C3.21289 5.93193 3.29492 6.36943 3.45898 6.7085L3.27852 7.47959C3.01602 8.5624 2.83008 9.38818 2.7207 9.95693C2.53477 10.9304 2.4418 11.7124 2.4418 12.303C2.4418 12.5437 2.46914 12.9101 2.52383 13.4022L2.55664 13.7632L2.58945 13.8124C2.61133 13.8343 2.625 13.8452 2.63047 13.8452C2.63594 13.8452 2.65508 13.8397 2.68789 13.8288L2.73711 13.8124C3.07617 13.353 3.3332 12.9483 3.5082 12.5983C3.6832 12.2812 3.82539 11.9421 3.93477 11.5812C4.00039 11.3515 4.09883 10.9632 4.23008 10.4163C4.33945 9.90225 4.43789 9.48115 4.52539 9.15303C4.66758 9.44834 4.92461 9.6835 5.29648 9.8585C5.62461 10.0116 5.96367 10.0882 6.31367 10.0882C7.18867 10.0882 7.94336 9.82568 8.57773 9.30068C9.14649 8.84131 9.58399 8.20147 9.89023 7.38115C10.1746 6.6374 10.3168 5.84443 10.3168 5.00225C10.3168 4.16006 10.0926 3.40537 9.64414 2.73818C9.22852 2.10381 8.6625 1.60889 7.94609 1.25342C7.22969 0.89795 6.46133 0.720216 5.64102 0.720216Z" fill="white"/>
</svg>
