<svg width="25" height="25" viewBox="0 0 25 25" fill="none" xmlns="http://www.w3.org/2000/svg">
<path d="M19.3408 0.810059C19.1768 0.810059 19.0229 0.830566 18.8794 0.871582L2.8833 5.08594C2.22705 5.25 1.69385 5.59863 1.28369 6.13184C0.873535 6.66504 0.668457 7.27002 0.668457 7.94678V21.4819C0.668457 22.2817 0.960693 22.9739 1.54517 23.5583C2.12964 24.1428 2.82178 24.4351 3.62158 24.4351H21.3403C22.1401 24.4351 22.8323 24.1428 23.4167 23.5583C24.0012 22.9739 24.2935 22.2817 24.2935 21.4819V8.68506C24.2935 7.88525 24.0012 7.19312 23.4167 6.60864C22.8323 6.02417 22.1401 5.73193 21.3403 5.73193H8.17432L19.3716 2.77881V4.74756H21.3403V2.77881C21.3403 2.2251 21.1404 1.75854 20.7405 1.37915C20.3406 0.999756 19.874 0.810059 19.3408 0.810059ZM3.62158 7.70068H21.3403C21.6274 7.70068 21.8633 7.79297 22.0479 7.97754C22.2324 8.16211 22.3247 8.39795 22.3247 8.68506V21.4819C22.3247 21.769 22.2324 22.0049 22.0479 22.1895C21.8633 22.374 21.6274 22.4663 21.3403 22.4663H3.62158C3.33447 22.4663 3.09863 22.374 2.91406 22.1895C2.72949 22.0049 2.63721 21.769 2.63721 21.4819V8.68506C2.63721 8.39795 2.72949 8.16211 2.91406 7.97754C3.09863 7.79297 3.33447 7.70068 3.62158 7.70068ZM18.8794 13.6069C18.4692 13.6069 18.1206 13.7505 17.8335 14.0376C17.5464 14.3247 17.4028 14.6733 17.4028 15.0835C17.4028 15.4937 17.5464 15.8423 17.8335 16.1294C18.1206 16.4165 18.4692 16.5601 18.8794 16.5601C19.2896 16.5601 19.6382 16.4165 19.9253 16.1294C20.2124 15.8423 20.356 15.4937 20.356 15.0835C20.356 14.6733 20.2124 14.3247 19.9253 14.0376C19.6382 13.7505 19.2896 13.6069 18.8794 13.6069Z" fill="#5F6680"/>
</svg>
