<svg width="22" height="27" viewBox="0 0 22 27" fill="none" xmlns="http://www.w3.org/2000/svg">
<path d="M10.925 0.825684C8.97681 0.825684 7.16187 1.31787 5.48022 2.30225C3.8396 3.26611 2.53735 4.56836 1.57349 6.20898C0.589111 7.89062 0.0969238 9.70557 0.0969238 11.6538V17.5601C0.0969238 18.1958 0.281494 18.7649 0.650635 19.2673C1.01978 19.7698 1.49146 20.1235 2.06567 20.3286V20.5132C2.06567 21.395 2.28613 22.2153 2.72705 22.9741C3.16797 23.7329 3.76782 24.3328 4.52661 24.7737C5.2854 25.2146 6.10571 25.4351 6.98755 25.4351H8.24878C8.43335 25.7427 8.67432 25.9836 8.97168 26.158C9.26904 26.3323 9.59204 26.4194 9.94067 26.4194H11.9094C12.4426 26.4194 12.9041 26.2246 13.2937 25.835C13.6833 25.4453 13.8782 24.9839 13.8782 24.4507C13.8782 23.9175 13.6833 23.4561 13.2937 23.0664C12.9041 22.6768 12.4426 22.4819 11.9094 22.4819H9.94067C9.59204 22.4819 9.26904 22.5691 8.97168 22.7434C8.67432 22.9177 8.43335 23.1587 8.24878 23.4663H6.98755C6.16724 23.4663 5.46997 23.1792 4.89575 22.605C4.32153 22.0308 4.03442 21.3335 4.03442 20.5132H6.00317V11.6538H2.06567C2.06567 10.0542 2.46558 8.56738 3.26538 7.19336C4.06519 5.86035 5.13159 4.79395 6.4646 3.99414C7.83862 3.19434 9.32544 2.79443 10.925 2.79443C12.5247 2.79443 14.0115 3.19434 15.3855 3.99414C16.7185 4.79395 17.7849 5.86035 18.5847 7.19336C19.3845 8.56738 19.7844 10.0542 19.7844 11.6538H15.8469V20.5132H18.8C19.5999 20.5132 20.292 20.2209 20.8765 19.6365C21.4609 19.052 21.7532 18.3599 21.7532 17.5601V11.6538C21.7532 9.70557 21.261 7.89062 20.2766 6.20898C19.3127 4.56836 18.0105 3.26611 16.3699 2.30225C14.6882 1.31787 12.8733 0.825684 10.925 0.825684ZM2.06567 13.6226H4.03442V18.5444H3.05005C2.78345 18.5444 2.55273 18.447 2.35791 18.2522C2.16309 18.0574 2.06567 17.8267 2.06567 17.5601V13.6226ZM17.8157 13.6226H19.7844V17.5601C19.7844 17.8267 19.687 18.0574 19.4922 18.2522C19.2974 18.447 19.0667 18.5444 18.8 18.5444H17.8157V13.6226Z" fill="#5F6680"/>
</svg>
