<svg width="13" height="12" viewBox="0 0 13 12" fill="none" xmlns="http://www.w3.org/2000/svg">
<path d="M12.8917 2.11572C12.4214 2.32353 11.9292 2.46025 11.4152 2.52588C11.6777 2.36182 11.9074 2.15674 12.1042 1.91064C12.3011 1.66455 12.4488 1.38838 12.5472 1.08213C12.0332 1.38838 11.4863 1.60166 10.9066 1.72197C10.666 1.45947 10.3816 1.25713 10.0535 1.11494C9.72534 0.972754 9.38081 0.901659 9.01987 0.901659C8.54956 0.901659 8.11753 1.0165 7.72378 1.24619C7.33003 1.47588 7.01558 1.79033 6.78042 2.18955C6.54526 2.58877 6.42769 3.01807 6.42769 3.47744C6.42769 3.68525 6.44956 3.88213 6.49331 4.06807C5.44331 4.02432 4.448 3.75635 3.50737 3.26416C2.59956 2.80478 1.81753 2.17588 1.16128 1.37744C0.931592 1.77119 0.816748 2.20322 0.816748 2.67353C0.816748 3.11103 0.920654 3.52119 1.12847 3.904C1.33628 4.28682 1.61519 4.59307 1.96519 4.82275C1.54956 4.81182 1.16128 4.70244 0.800342 4.49463V4.52744C0.800342 5.15088 0.997217 5.70049 1.39097 6.17627C1.78472 6.65205 2.2769 6.9501 2.86753 7.07041C2.64878 7.1251 2.42456 7.15244 2.19487 7.15244C2.03081 7.15244 1.86675 7.1415 1.70269 7.11963C1.86675 7.63369 2.17026 8.05752 2.61323 8.39111C3.0562 8.72471 3.55659 8.89697 4.1144 8.90791C3.66597 9.25791 3.16831 9.53135 2.62144 9.72822C2.07456 9.9251 1.50581 10.0235 0.915186 10.0235C0.707373 10.0126 0.499561 9.99619 0.291748 9.97432C0.871436 10.3462 1.49487 10.6306 2.16206 10.8274C2.84019 11.0353 3.53472 11.1392 4.24565 11.1392C5.39409 11.1392 6.44956 10.9149 7.41206 10.4665C8.28706 10.0618 9.05269 9.4876 9.70894 8.74385C10.3214 8.05479 10.7972 7.26728 11.1363 6.38135C11.4535 5.51728 11.6121 4.65322 11.6121 3.78916L11.5957 3.44463C12.1097 3.08369 12.5417 2.64072 12.8917 2.11572Z" fill="white"/>
</svg>
